{"title":"CHVRCHES - Coachella 2016 Apr16 wknd 1 - 1080p 60 WEB-DL","uid":14374167,"size":2040863253,"categoryP":"video","categoryS":"music_videos","magnet":"?xt=urn:btih:2994c8908bb260622c570877d82f6287b3212fcf&amp;dn=CHVRCHES+-+Coachella+2016+Apr16+wknd+1+-+1080p+60+WEB-DL&amp;tr=udp%3A%2F%2Ftracker.leechers-paradise.org%3A6969&amp;tr=udp%3A%2F%2Fzer0day.ch%3A1337&amp;tr=udp%3A%2F%2Fopen.demonii.com%3A1337&amp;tr=udp%3A%2F%2Ftracker.coppersurfer.tk%3A6969&amp;tr=udp%3A%2F%2Fexodus.desync.com%3A6969","seeders":1,"leechers":0,"uploader":"doragon69","files":1,"time":1461186172,"description":"Download from the Coachella live stream on Youtube.\r\n\r\nVideo: MPEG4 Video (H264) 1920x1080 60fps 5882kbps\r\nAudio: AAC 48000Hz stereo 135kbps\r\n\r\nthumbnails: https://i.imgur.com/I0sI6aJ.jpg\r\n\r\nnote on the 60fps:\r\nYoutube's stream was 1080p in 60fps, the actual video that Coachella was sending to Youtube appears to be 1080p 30fps (duplicate frames), but it does gain the benefit of the higher bit rate Youtube gives 60fps video without using all of the extra bit rate on new extra frames, so it does have slightly better image quality.\r\n\r\nVideo\r\nID : 1\r\nFormat : AVC\r\nFormat/Info : Advanced Video Codec\r\nFormat profile :   \r\nFormat settings, CABAC : Yes\r\nFormat settings, ReFrames : 1 frame\r\nCodec ID : avc1\r\nCodec ID/Info : Advanced Video Coding\r\nDuration : 45mn 10s\r\nSource duration : 45mn 10s\r\nBit rate : 5 883 Kbps\r\nMaximum bit rate : 13.5 Mbps\r\nWidth : 1 920 pixels\r\nHeight : 1 080 pixels\r\nDisplay aspect ratio : 16:9\r\nFrame rate mode : Variable\r\nFrame rate : 60.000 fps\r\nMinimum frame rate : 3.525 fps\r\nMaximum frame rate : 3 000.000 fps\r\nColor space : YUV\r\nChroma subsampling : 4:2:0\r\nBit depth : 8 bits\r\nScan type : Progressive\r\nBits/(Pixel*Frame) : 0.047\r\nStream size : 1.86 GiB (98%)\r\nSource stream size : 1.86 GiB (98%)\r\nTagged date : UTC 2016-04-17 22:16:39\r\nColor primaries : BT.709\r\nTransfer characteristics : BT.709\r\nMatrix coefficients : BT.709\r\n\r\nAudio\r\nID : 2\r\nFormat : AAC\r\nFormat/Info : Advanced Audio Codec\r\nFormat profile : LC\r\nCodec ID : 40\r\nDuration : 45mn 10s\r\nSource duration : 45mn 10s\r\nBit rate mode : Variable\r\nBit rate : 135 Kbps\r\nNominal bit rate : 125 Kbps\r\nMaximum bit rate : 131 Kbps\r\nChannel(s) : 2 channels\r\nChannel positions : Front: L R\r\nSampling rate : 48.0 KHz\r\nCompression mode : Lossy\r\nStream size : 43.8 MiB (2%)\r\nSource stream size : 43.8 MiB (2%)\r\nTagged date : UTC 2016-04-17 22:16:39","torrent":{"xt":"urn:btih:2994c8908bb260622c570877d82f6287b3212fcf","amp;dn":"CHVRCHES+-+Coachella+2016+Apr16+wknd+1+-+1080p+60+WEB-DL","amp;tr":["udp%3A%2F%2Ftracker.leechers-paradise.org%3A6969","udp%3A%2F%2Fzer0day.ch%3A1337","udp%3A%2F%2Fopen.demonii.com%3A1337","udp%3A%2F%2Ftracker.coppersurfer.tk%3A6969","udp%3A%2F%2Fexodus.desync.com%3A6969"],"infoHash":"2994c8908bb260622c570877d82f6287b3212fcf","infoHashBuffer":{"type":"Buffer","data":[41,148,200,144,139,178,96,98,44,87,8,119,216,47,98,135,179,33,47,207]},"announce":[],"urlList":[]}}